# xmcd CD database file
#
# Track frame offsets:
#	150
#	18600
#	40579
#	69997
#	87025
#	98101
#	107631
#	120897
#	145818
#	164053
#
# Disc length: 2722 seconds
#
# Revision: 0
# Processed by: cddbd v1.5.2PL0 Copyright (c) Steve Scherf et al.
# Submitted via: CDex 1.51
#
DISCID=770aa00a
DTITLE=Stevie Wonder - Journey Through the Secret Life of Plants
DYEAR=1979
DGENRE=Jazz
TTITLE0=Earth's Creation
TTITLE1=The First Garden
TTITLE2=Voyage to India
TTITLE3=Same Old Story
TTITLE4=Venus' Flytrap and the Bu
TTITLE5=Ai No Sono
TTITLE6=Seasons
TTITLE7=Power Flower
TTITLE8=Send One Your Love
TTITLE9=Race Babbling
EXTD=YEAR: 1979
EXTT0=
EXTT1=
EXTT2=
EXTT3=
EXTT4=
EXTT5=
EXTT6=
EXTT7=
EXTT8=
EXTT9=
PLAYORDER=
